<svg xmlns="http://www.w3.org/2000/svg" width="157" height="71.691" viewBox="0 0 157 71.691">
  <g id="georgia" transform="translate(0 -6.033)">
    <path id="Path_4" data-name="Path 4" d="M40.89,67.229c14.251-2.463,27.974-3.106,39.241,8.539,1.985,2.044,5.169,1.748,7.3.961,11.545-4.176,25.147,1.308,35.607-8.041,1.913-1.69,5.762-1.279,7.176.607,4.869,6.444,12.688,4.493,18.664,7.491,3.177,1.611,5.733,1.235,7.4-1.835,1.7-3.186.2-5.3-2.72-7.217-4.077-2.666-10.339-4.9-3.313-11.479,2.313-2.138-.942-3.684-2.835-4.472-6.554-2.7-15.615-2.933-12.98-14.275.1-.4-1.521-1.438-2.485-1.806-12.216-4.587-24.454-9.3-37.363-2.232-1.971,1.062-3.006,1.416-5.226-.816C78.8,21.992,66.009,15.446,50.758,16.046A49.42,49.42,0,0,1,33.8,13.6C25.2,10.953,17.222,5.918,7.769,6.113,4.891,6.185,1.485,5.174.236,8.735c-1.185,3.381,2.385,4.024,4.241,5.5A43.535,43.535,0,0,0,17.9,21.3C35.421,27.338,46.824,52.911,35.985,65,37.685,65.828,39.462,67.49,40.89,67.229Z" transform="translate(0)" fill="#f9f1f1"/>
  </g>
</svg>
